<svg xmlns="http://www.w3.org/2000/svg" aria-hidden="true" style="position:absolute;width:0;height:0;overflow:hidden">
  <defs>
    <symbol id="twitter" fill="none" viewBox="0 0 16 16">
      <path fill="var(--color0, #f4f4fd)" d="M16 3.039a6.8 6.8 0 0 1-1.89.518 3.26 3.26 0 0 0 1.443-1.813 6.6 6.6 0 0 1-2.08.794 3.28 3.28 0 0 0-5.674 2.243c0 .26.022.51.076.748a9.28 9.28 0 0 1-6.761-3.431 3.285 3.285 0 0 0 1.008 4.384A3.24 3.24 0 0 1 .64 6.078v.036a3.295 3.295 0 0 0 2.628 3.223 3.3 3.3 0 0 1-.86.108 3 3 0 0 1-.621-.056 3.31 3.31 0 0 0 3.065 2.285 6.6 6.6 0 0 1-4.067 1.399c-.269 0-.527-.012-.785-.045A9.23 9.23 0 0 0 5.032 14.5c6.036 0 9.336-5 9.336-9.334q0-.216-.012-.424A6.5 6.5 0 0 0 16 3.039"/>
    </symbol>
    <symbol id="linkedin" fill="none" viewBox="0 0 16 16">
      <g fill="var(--color0, #f4f4fd)" clip-path="url(#clip0_1031796_416)">
        <path d="M15.996 16H16v-5.87c0-2.87-.618-5.082-3.974-5.082-1.613 0-2.696.886-3.138 1.725h-.047V5.317H5.66V16h3.314v-5.29c0-1.393.264-2.74 1.988-2.74 1.7 0 1.725 1.59 1.725 2.83V16zM.264 5.318h3.317V16H.264zM1.921 0C.861 0 0 .86 0 1.921s.86 1.94 1.921 1.94 1.922-.879 1.922-1.94A1.925 1.925 0 0 0 1.92 0"/>
      </g>
      <defs>
        <clipPath id="clip0_1031796_416">
          <path fill="#fff" d="M0 0h16v16H0z"/>
        </clipPath>
      </defs>
    </symbol>
    <symbol id="instagram" fill="none" viewBox="0 0 16 16">
      <g fill="var(--color0, #f4f4fd)" clip-path="url(#clip0_1031796_416)">
        <path d="M15.984 4.704c-.037-.85-.175-1.435-.372-1.941a3.9 3.9 0 0 0-.925-1.419 3.9 3.9 0 0 0-1.416-.922c-.51-.197-1.09-.335-1.94-.372C10.473.01 10.2 0 8.03 0 5.857 0 5.585.01 4.732.047c-.85.037-1.435.175-1.94.372a3.9 3.9 0 0 0-1.42.925A3.9 3.9 0 0 0 .45 2.76C.253 3.27.116 3.85.078 4.7c-.04.857-.05 1.13-.05 3.302s.01 2.444.047 3.297c.037.85.175 1.435.372 1.941.203.538.519 1.019.925 1.42.4.405.885.721 1.416.921.51.197 1.09.335 1.941.372.853.038 1.125.047 3.298.047s2.444-.01 3.297-.047c.85-.037 1.435-.175 1.941-.372a4.1 4.1 0 0 0 2.341-2.34c.197-.51.335-1.092.372-1.942.038-.853.047-1.125.047-3.297s-.003-2.445-.04-3.298m-1.44 6.533c-.035.781-.166 1.203-.276 1.484a2.65 2.65 0 0 1-1.519 1.52c-.281.109-.706.24-1.484.274-.844.038-1.097.047-3.232.047s-2.391-.01-3.232-.047c-.782-.034-1.204-.165-1.485-.275a2.5 2.5 0 0 1-.919-.597 2.5 2.5 0 0 1-.597-.919c-.11-.28-.24-.706-.275-1.484-.037-.844-.047-1.097-.047-3.232s.01-2.391.047-3.232c.035-.781.166-1.203.275-1.485.128-.347.332-.662.6-.919.26-.265.572-.469.92-.597.28-.109.706-.24 1.484-.275.844-.037 1.097-.047 3.232-.047 2.138 0 2.39.01 3.232.047.781.035 1.203.166 1.484.275.347.128.663.332.92.597.265.26.468.572.596.92.11.28.241.706.275 1.484.038.844.047 1.097.047 3.232s-.009 2.385-.046 3.229"/>
        <path d="M8.03 3.891a4.111 4.111 0 0 0 0 8.22 4.111 4.111 0 0 0 0-8.22m0 6.777a2.667 2.667 0 1 1 0-5.333 2.667 2.667 0 0 1 0 5.333m5.232-6.939a.96.96 0 1 1-1.92 0 .96.96 0 0 1 1.92 0"/>
      </g>
    </symbol>
    <symbol id="facebook" fill="none" viewBox="0 0 16 16">
      <path fill="var(--color0, #f4f4fd)" d="M10.665 2.657h1.46V.113A19 19 0 0 0 9.997 0C7.891 0 6.45 1.325 6.45 3.76V6H4.125v2.844h2.324V16h2.849V8.845h2.23L11.882 6H9.297V4.04c.001-.822.222-1.384 1.368-1.384"/>
    </symbol>
    <symbol id="diagram" fill="none" viewBox="0 0 64 64">
      <g fill="var(--color2, #4d5ae5)" clip-path="url(#clip0_1004689_1305)">
        <path d="M29.851 29.93h2.132v9.594h-2.132zm8.529 4.264h2.132v5.33H38.38zm-17.058 3.198h2.132v2.132h-2.132zm-6.396-1.066h2.132v3.198h-2.132z"/>
        <path fill="var(--color1, #2e2f42)" d="M3.198 56.582h51.174a3.2 3.2 0 0 0 3.198-3.198v-4.265a3.2 3.2 0 0 0-3.198-3.198h-1.067V19.334l6.056-5.736a3.216 3.216 0 1 0-1.493-1.526l-4.563 4.325v-2.46a3.2 3.2 0 0 0-3.198-3.198H7.463a3.2 3.2 0 0 0-3.199 3.199V45.92H3.198A3.2 3.2 0 0 0 0 49.119v4.265a3.2 3.2 0 0 0 3.198 3.198m57.57-46.909a1.066 1.066 0 1 1 0 2.133 1.066 1.066 0 0 1 0-2.133M6.397 13.938c0-.59.477-1.067 1.066-1.067h42.644c.589 0 1.066.478 1.066 1.067v4.477l-2.132 2.026V16.07c0-.589-.477-1.066-1.066-1.066H9.595c-.589 0-1.066.477-1.066 1.066v26.653c0 .588.477 1.066 1.066 1.066h38.38c.589 0 1.066-.478 1.066-1.067V23.374l2.132-2.02V45.92H6.397zm9.595 13.859a3.198 3.198 0 1 0 2.214 5.497l3.706 1.86c.43.215.953.114 1.273-.246l7.877-8.863 7.744 5.803c.416.311.996.278 1.372-.079l6.73-6.375v16.262H10.662v-24.52H46.91v5.32L39.366 29.6l-7.81-5.854a1.067 1.067 0 0 0-1.435.144l-7.986 8.985-2.986-1.493q.033-.192.041-.387a3.2 3.2 0 0 0-3.198-3.198m1.066 3.198a1.066 1.066 0 1 1-2.133 0 1.066 1.066 0 0 1 2.133 0m6.396 17.058h10.661v1.066c0 .589-.477 1.066-1.066 1.066H24.52a1.066 1.066 0 0 1-1.066-1.066zM2.132 49.12c0-.589.478-1.066 1.066-1.066h18.124v1.066a3.2 3.2 0 0 0 3.198 3.198h8.53a3.2 3.2 0 0 0 3.198-3.198v-1.066h18.124c.588 0 1.066.477 1.066 1.066v4.265c0 .588-.478 1.066-1.067 1.066H3.198a1.066 1.066 0 0 1-1.066-1.066z"/>
      </g>
      <defs>
        <clipPath id="clip0_1004689_1305">
          <path fill="#fff" d="M0 0h64v64H0z"/>
        </clipPath>
      </defs>
    </symbol>
    <symbol id="clock" fill="var(--color2, #4d5ae5)" viewBox="0 0 64 64">
      <path fill="var(--color1, #2e2f42)" d="M62.593 30.603C62.59 13.697 48.883-.004 31.977 0 15.074.003 1.372 13.71 1.375 30.616a30.61 30.61 0 0 0 21.299 29.152q.182.058.373.057c.242 0 .478-.065.685-.187.27-.16.472-.414.567-.713l7.73-24.5a3.826 3.826 0 1 0-1.68-7.27L20.137 16.942a1.275 1.275 0 0 0-1.803 1.804l10.207 10.218a3.75 3.75 0 0 0 1.072 4.618l-7.365 23.346C7.692 51.566.239 35.42 5.601 20.864 10.963 6.31 27.11-1.144 41.665 4.217 56.22 9.58 63.673 25.726 58.312 40.281a28.1 28.1 0 0 1-14.925 15.947l-.796-3.749a1.275 1.275 0 0 0-2.096-.687l-7.674 6.851a1.275 1.275 0 0 0 .462 2.169l9.797 3.127a1.275 1.275 0 0 0 1.638-1.48l-.782-3.678a30.51 30.51 0 0 0 18.657-28.178m-30.609-1.276a1.276 1.276 0 1 1 0 2.552 1.276 1.276 0 0 1 0-2.552m4.201 29.728 4.368-3.896 1.206 5.68z"/>
      <path d="M30.709 6.37v2.55a1.275 1.275 0 1 0 2.55 0V6.37a1.276 1.276 0 0 0-2.55 0M7.752 29.327a1.275 1.275 0 0 0 0 2.55h2.55a1.275 1.275 0 1 0 0-2.55zm48.464 2.551a1.275 1.275 0 1 0 0-2.55h-2.55a1.276 1.276 0 0 0 0 2.55z"/>
    </symbol>
    <symbol id="astronaut" fill="var(--color2, #4d5ae5)" viewBox="0 0 64 64">
      <path d="M63.948 9.048a1.07 1.07 0 0 0-.86-.725l-3.822-.556-1.71-3.462c-.358-.73-1.553-.73-1.912 0l-1.71 3.462-3.82.556a1.066 1.066 0 0 0-.592 1.819l2.765 2.695-.653 3.806a1.069 1.069 0 0 0 1.548 1.124L56.6 15.97l3.418 1.797a1.068 1.068 0 0 0 1.547-1.124l-.652-3.806 2.766-2.696a1.07 1.07 0 0 0 .27-1.093m-4.926 2.654c-.25.244-.366.598-.306.944l.382 2.228-2.001-1.051a1.06 1.06 0 0 0-.994 0l-2.001 1.051.382-2.228a1.07 1.07 0 0 0-.307-.944l-1.62-1.579 2.238-.325c.348-.05.648-.269.803-.583l1-2.027L57.6 9.214c.156.315.456.534.804.584l2.237.325zm-6.756 29.342h-2.134v2.134h2.134zm0 4.267h-2.134v2.134h2.134zm2.133-2.133h-2.133v2.133H54.4zm-4.266 0H48v2.133h2.134zm-5.334 9.6h-2.133v2.133H44.8zm0 4.267h-2.133v2.133H44.8zm2.134-2.134H44.8v2.134h2.134zm-4.267 0h-2.134v2.134h2.134zM32 48.511h-2.133v2.134H32zm0 4.267h-2.133v2.133H32zm2.133-2.133H32v2.133h2.133zm-4.266 0h-2.134v2.133h2.134zM11.733 12.244H9.6v2.133h2.133zm0 4.266H9.6v2.134h2.133zm2.133-2.133h-2.133v2.134h2.133zm-4.266 0H7.466v2.134H9.6z"/>
      <path fill="var(--color1, #2e2f42)" d="M49.43 28.319a3.55 3.55 0 0 0-2.377-1.41 3.55 3.55 0 0 0-2.68.705l-2.503 1.919h-.001l-3.796 2.835-2.715-1.082c4.842-2.172 8.227-7.016 8.227-12.64C43.585 11 37.34 4.78 29.663 4.78S15.74 11 15.74 18.646c0 2.771.83 5.349 2.24 7.517l-5.527-.048h-.01c-.017 0-.03.009-.047.01a1 1 0 0 0-.31.062c-.026.01-.052.015-.077.026-.012.006-.025.007-.038.013l-6.466 3.193h-.002l-3.787 1.822a1 1 0 0 0-.126.07A3.56 3.56 0 0 0 .393 35.9a3.55 3.55 0 0 0 2.112 1.779 3.56 3.56 0 0 0 2.757-.257l2.776-1.476 4.528-2.339 2.714-.015-10.884 10.83q0 .002-.003.003l-2.677 2.666a3.3 3.3 0 0 0-.98 2.356 3.332 3.332 0 0 0 3.338 3.327c.856 0 1.709-.323 2.36-.97l2.629-2.618 3.482-2.599 1.801 1.794-3.523 3.508-.003.003-2.678 2.666a3.3 3.3 0 0 0-.98 2.355c0 .89.348 1.727.98 2.358.65.646 1.505.97 2.36.97s1.71-.324 2.36-.97l2.679-2.667 4.285-4.266q0-.003.002-.004l2.019-2-.007-.007c.012-.013.03-.017.043-.031L32.215 38.98l6.942.988q.075.011.15.01c.13 0 .254-.03.375-.076q.05-.02.1-.047c.038-.019.078-.03.114-.054l6.427-4.267c.024-.016.036-.042.059-.059.025-.02.057-.028.08-.05l2.544-2.383a3.56 3.56 0 0 0 .424-4.723M4.26 35.54c-.346.186-.74.223-1.116.104a1.43 1.43 0 0 1-.425-2.52l2.628-1.264.632 1.849.266.776zm6.995-3.655-3.097 1.6-.51-1.494-.367-1.073 4.053-2zm30.199-13.241c0 1.837-.439 3.57-1.198 5.119l-8.363-3.798a3.72 3.72 0 0 0-1.576-2.776l2.928-9.72C38 8.98 41.454 13.416 41.454 18.643m-23.578 0c0-6.47 5.289-11.733 11.789-11.733.506 0 1 .042 1.49.104l-2.864 9.507c-.038 0-.075-.011-.114-.011a3.743 3.743 0 0 0-3.745 3.733 3.743 3.743 0 0 0 3.745 3.733 3.73 3.73 0 0 0 3.236-1.889l7.725 3.51c-2.15 2.893-5.59 4.78-9.473 4.78-6.5 0-11.789-5.265-11.789-11.734m11.913 1.6c0 .882-.724 1.6-1.612 1.6a1.61 1.61 0 0 1-1.612-1.6c0-.882.723-1.6 1.612-1.6s1.612.718 1.612 1.6M4.929 50.292a1.217 1.217 0 0 1-1.708.002 1.19 1.19 0 0 1 0-1.689l1.924-1.917 1.703 1.695zm6.428 7.467a1.216 1.216 0 0 1-1.71.001 1.19 1.19 0 0 1 0-1.688l1.926-1.918.805.801.899.894zm6.964-6.937-.004.002-3.53 3.52-.805-.801-.898-.894 3.527-3.51v-.002l.003-.002c.08-.08.13-.176.18-.27.013-.028.04-.052.051-.08.034-.083.039-.171.052-.258.006-.049.028-.095.028-.145 0-.071-.026-.14-.041-.211-.013-.064-.013-.13-.037-.191-.04-.1-.11-.189-.183-.275-.02-.024-.028-.054-.05-.076h-.001l-.002-.004-3.214-3.2c-.034-.034-.078-.048-.116-.077a1 1 0 0 0-.174-.115 1 1 0 0 0-.187-.065 1 1 0 0 0-.206-.04 1 1 0 0 0-.19.01 1 1 0 0 0-.209.04 1 1 0 0 0-.188.09c-.04.022-.085.03-.122.057l-3.547 2.648-1.801-1.794 4.798-4.772 8.72 8.577zm13.637-14.034c-.03-.004-.06.008-.09.006a1 1 0 0 0-.23.014q-.09.013-.177.042a1 1 0 0 0-.193.094q-.089.053-.166.123c-.026.022-.057.033-.08.058l-9.397 10.292-8.656-8.514 5.666-5.636a1.068 1.068 0 0 0-.759-1.822l-4.437.026.055-3.215 6.208.053a13.9 13.9 0 0 0 9.963 4.202c.875 0 1.728-.09 2.559-.245.08.064.159.129.26.17l4.819 1.92.305 1.516.356 1.77zm8.083.357-.626-3.116 2.892-2.16.758 1.004 1.136 1.509zm7.507-5.662-1.676 1.57-1.862-2.473 1.663-1.274c.31-.24.701-.336 1.085-.286a1.434 1.434 0 0 1 .79 2.463"/>
      <path fill="var(--color1, #2e2f42)" d="m27.204 37.088-4.286-4.267a1.066 1.066 0 0 0-1.505 0l-4.285 4.267a1.07 1.07 0 0 0 0 1.513l4.285 4.266a1.066 1.066 0 0 0 1.505 0l4.286-4.266a1.067 1.067 0 0 0 0-1.513m-5.038 3.518-2.773-2.762 2.773-2.761 2.775 2.761zm12.163-30.464-.516 2.071c.142.035 3.476.904 3.476 4.298h2.133c0-4.034-3.331-5.931-5.093-6.37m5.093 8.503h-2.133v2.134h2.133z"/>
    </symbol>
    <symbol id="antenna" fill="none" viewBox="0 0 64 64">
      <path fill="var(--color1, #2e2f42)" d="M61.546 44.195 44.66 27.185l1.874-9.23c.484.188.998.287 1.517.29h.013a4.318 4.318 0 1 0-4.017-2.87l-9.92 1.21L17.945.32a1.07 1.07 0 0 0-.753-.32c-.28.002-.548.113-.747.31L13.42 3.318a1.067 1.067 0 0 0 0 1.509l1.628 1.65a29.885 29.885 0 0 0 5.04 35.327q.127.122.291.195a6 6 0 0 0-.104 1.094v12.374h-12.8A5.34 5.34 0 0 0 2.142 60.8v2.133c0 .59.477 1.067 1.066 1.067h49.067c.589 0 1.067-.478 1.067-1.067V60.8a5.34 5.34 0 0 0-5.334-5.333h-12.8v-5.484c2.005.42 4.048.635 6.097.64a29.7 29.7 0 0 0 14.08-3.567l1.636 1.646c.199.202.47.318.754.32.28-.002.548-.113.746-.31l3.025-3.009a1.067 1.067 0 0 0 0-1.508M46.56 12.466a2.133 2.133 0 1 1 1.504 3.646h-.007a2.133 2.133 0 0 1-1.493-3.646zm-2.511 7.01-1.197 5.89-2.351-2.364zm-1.212-1.804-3.84 3.817-2.97-2.987zM48.008 57.6a3.2 3.2 0 0 1 3.2 3.2v1.067H4.275V60.8a3.2 3.2 0 0 1 3.2-3.2zm-14.933-4.267v2.134H22.408v-2.134zM22.408 51.2v-8.107c0-2.587 2.393-4.693 5.334-4.693s5.333 2.106 5.333 4.693V51.2zm12.8-3.392v-4.715c0-3.764-3.35-6.826-7.467-6.826a7.6 7.6 0 0 0-6.562 3.572 27.74 27.74 0 0 1-4.557-31.774l37.204 37.417a27.64 27.64 0 0 1-18.618 2.326m22.578-1.367-1.503-1.512L17.182 5.592l-1.51-1.513 1.51-1.504 15.87 15.96c.007 0 .011.013.019.019L59.3 44.937z"/>
      <path fill="var(--color2, #4d5ae5)" d="M27.751 40.533h-.01a3.2 3.2 0 0 0-.01 6.4h.01a3.2 3.2 0 0 0 .01-6.4m.747 3.957a1.067 1.067 0 0 1-1.818-.762 1.07 1.07 0 0 1 1.062-1.061 1.067 1.067 0 0 1 .746 1.823z"/>
    </symbol>
    <symbol id="phone-icon" fill="none" viewBox="0 0 18 24">
      <path fill="currentColor" d="m14.726 13.865-1.838-.21a1.44 1.44 0 0 0-1.187.413l-1.331 1.331A10.9 10.9 0 0 1 5.6 10.63l1.34-1.339a1.44 1.44 0 0 0 .412-1.186l-.21-1.824A1.45 1.45 0 0 0 5.702 5H4.45c-.818 0-1.498.68-1.447 1.498.383 6.18 5.326 11.116 11.499 11.5.818.05 1.498-.63 1.498-1.448v-1.252a1.434 1.434 0 0 0-1.274-1.433"/>
      <defs>
        <clipPath id="clip0_297092_10543">
          <path fill="#fff" d="M0 0h18v24H0z"/>
        </clipPath>
      </defs>
    </symbol>
    <symbol id="person-icon" fill="none" viewBox="0 0 18 18">
      <path fill="currentColor" d="M9 9a3 3 0 1 0 0-6 3 3 0 1 0 0 6m0 1.5c-2.002 0-6 1.005-6 3v.75c0 .412.337.75.75.75h10.5c.413 0 .75-.337.75-.75v-.75c0-1.995-3.997-3-6-3"/>
      <defs>
        <clipPath id="clip0_1044736_454">
          <path fill="#fff" d="M0 0h18v18H0z"/>
        </clipPath>
      </defs>
    </symbol>
    <symbol id="email-icon" fill="none" viewBox="0 0 18 24">
      <path fill="currentColor" d="M15 6H3c-.825 0-1.492.675-1.492 1.5l-.008 9c0 .825.675 1.5 1.5 1.5h12c.825 0 1.5-.675 1.5-1.5v-9c0-.825-.675-1.5-1.5-1.5m-.3 3.188-5.302 3.314a.76.76 0 0 1-.796 0L3.3 9.188a.637.637 0 1 1 .675-1.08L9 11.25l5.025-3.142a.637.637 0 1 1 .675 1.08"/>
    </symbol>
    <symbol id="close" fill="none" viewBox="0 0 24 24">
      <circle cx="12" cy="12" r="12" fill="var(--color2, #e7e9fc)"/>
      <circle cx="12" cy="12" r="11.5" stroke="var(--color1, #000)" stroke-opacity=".1"/>
      <path fill="currentColor" d="M16 8.806 15.194 8 12 11.194 8.806 8 8 8.806 11.194 12 8 15.194l.806.806L12 12.806 15.194 16l.806-.806L12.806 12z"/>
      <defs>
        <clipPath id="clip0_297068_2404">
          <path fill="#fff" d="M8 8h8v8H8z"/>
        </clipPath>
      </defs>
    </symbol>
  </defs>
</svg>